<?xml version="1.0" encoding="utf-8"?>
<!-- Generator: Adobe Illustrator 17.1.0, SVG Export Plug-In . SVG Version: 6.00 Build 0)  -->
<!DOCTYPE svg PUBLIC "-//W3C//DTD SVG 1.1//EN" "http://www.w3.org/Graphics/SVG/1.1/DTD/svg11.dtd" [
	<!ENTITY ns_extend "http://ns.adobe.com/Extensibility/1.0/">
	<!ENTITY ns_ai "http://ns.adobe.com/AdobeIllustrator/10.0/">
	<!ENTITY ns_graphs "http://ns.adobe.com/Graphs/1.0/">
	<!ENTITY ns_vars "http://ns.adobe.com/Variables/1.0/">
	<!ENTITY ns_imrep "http://ns.adobe.com/ImageReplacement/1.0/">
	<!ENTITY ns_sfw "http://ns.adobe.com/SaveForWeb/1.0/">
	<!ENTITY ns_custom "http://ns.adobe.com/GenericCustomNamespace/1.0/">
	<!ENTITY ns_adobe_xpath "http://ns.adobe.com/XPath/1.0/">
]>
<svg version="1.1" id="Layer_1" xmlns:x="&ns_extend;" xmlns:i="&ns_ai;" xmlns:graph="&ns_graphs;"
	 xmlns="http://www.w3.org/2000/svg" xmlns:xlink="http://www.w3.org/1999/xlink" x="0px" y="0px" viewBox="0 0 210.3 64.6"
	 enable-background="new 0 0 210.3 64.6" xml:space="preserve">
<metadata>
	<sfw  xmlns="&ns_sfw;">
		<slices></slices>
		<sliceSourceBounds  bottomLeftOrigin="true" width="198.6" height="54.7" y="-452.8" x="204.5"></sliceSourceBounds>
	</sfw>
</metadata>
<g>
	<path d="M51.8,17C50.2,9.9,42.6,6.3,34.8,6.3c-7.1,0-22.3,3.4-22.3,24.9c0,14.8,6.1,26.6,23.8,26.6c10.3,0,10.9-2.2,10.9-5.6v-9.5
		c0-5-2.8-5.5-5.8-5.9v-0.6h16.8v0.6c-5,0.5-5.7,2.7-5.7,6.1v14.4c-5.3,1.4-10.6,2.1-16,2.1c-6.2,0-17.4-0.6-25-11
		c-4.3-6-5.2-12.2-5.2-16.1c0-13.8,10.5-27.5,28.4-27.5c3.6,0,5.8,0.4,12,1.7c1.2,0.3,2.2,0.4,2.7,0.4c0.4,0,1.8-0.1,2.5-1.7h0.6V17
		H51.8z"/>
	<path d="M100.4,50c2.5,7.1,4.5,7.3,7,7.5V58H90.4v-0.6c2.2,0,5.4,0.2,5.4-3.2c0-0.4-0.1-1.6-0.6-3.2C95.1,51,95,50.8,95,50.7
		l-4.6-13.8H72.5l-4.1,12.7c-0.4,1.1-0.9,3.1-0.9,4.2c0,3.2,2,3.6,4.2,3.6V58H59.5v-0.6c3.6-0.3,5.4-2.7,6.9-7.3L81.1,5.6h3.8
		L100.4,50z M89.6,35.1l-8.4-24.6H81l-7.9,24.6H89.6z"/>
	<path d="M165.7,6.8c-1.2,0.1-2.4,0.1-3.5,1c-1.7,1.3-1.8,2.1-1.9,4.5c-0.1,0.2-0.1,0.4,0,0.6l1.8,38.5c0.1,2,0.3,5.9,5.9,6V58
		h-16.8v-0.6c4.5-0.4,5.7-2.6,5.5-6.8l-1.8-39.8h-0.1L136.5,58l-17.3-45.4h-0.1l-1.9,36.7c-0.3,6.3,1.4,7.6,5.3,8.1V58h-13v-0.6
		c5.4-0.1,5.8-4.1,6.1-8.9l2.1-37.9c0-0.4-1.4-2.1-2.7-2.7c-1.8-1.1-3.4-1-4.5-1.1V6.3h12l16.1,42.3l16.3-42.3h10.9V6.8z"/>
	<path d="M172.2,6.3h30.9v8.1h-0.5c0-6.1-5.6-6.6-8.7-6.6h-10.8v23.5h9.5c2.2,0,7.1-0.1,7.6-5.1h0.5V38h-0.5
		c-0.7-4.4-3.7-4.8-4.5-4.8c-0.9-0.1-2.4-0.2-2.7-0.2h-9.9v18.4c0,1.6,0,5.1,4.5,5.1h7.7c5.9,0,7.8-2.8,9.1-6.6h0.5l-1.8,8.1h-30.9
		v-0.6h0.7c1.5,0,4.8-1.2,4.8-5.7v-39c0-2.4-0.9-5.9-4.8-5.9h-0.7V6.3z"/>
</g>
</svg>
